<svg xml:space="preserve" enable-background="new 0 0 104 58.614" viewBox="0 0 104 58.614" height="34px" width="60px" y="0px" x="0px" xmlns:xlink="http://www.w3.org/1999/xlink" xmlns="http://www.w3.org/2000/svg" id="Layer_1" version="1.1">
<path d="M0.197,19.983c0-4.687,8.799-4.3,15.284-10.788c3.404,3.598,8.092,6.036,12.973,7.065v0.771
  c-2.44,0-3.596,0.898-3.596,3.211V38.67c0,0.963,0.899,1.8,1.798,2.955c0.835,1.156,1.734,2.634,1.734,5.009
  c0,7.708-8.22,11.753-14.964,11.753c-4.366,0-12.394-0.642-12.394-6.678c0-2.697,2.312-4.239,4.817-4.239
  c2.504,0,5.651,1.155,5.588,4.11c0,4.43-3.982,3.338-3.982,4.493c0,1.027,3.081,1.158,3.916,1.158c4.11,0,8.927-1.734,8.927-6.551
  c0-4.818-4.944-5.779-4.944-13.616c-3.211,2.248-6.293,4.688-9.183,7.322c-5.33-3.146-5.973-5.009-5.973-8.863V19.983z
   M15.225,19.213c-1.927-0.834-3.725-1.991-5.395-3.339v18.623c0,1.927,0.386,3.662,1.606,3.662c0.319,0,0.834-0.065,1.348-0.449
  l2.44-1.799V19.213z" fill="#FFFFFF"/>
<path d="M32.758,16.691c5.94,0.184,13.042-1.041,17.083-5.203c5.755,4.04,6.429,6.488,6.429,14.938
  c0,10.776-0.98,12.062-6.062,13.288c-3.368,0.795-5.632,2.021-7.347,5.326c-3.49-3.184-7.653-5.938-12.367-7.224V37.08
  c2.142-0.184,2.264-1.775,2.264-2.51V16.691z M41.943,34.386c1.958,0.982,3.673,2.448,5.142,3.796V22.508
  c0-2.815-0.857-4.774-5.142-5.694V34.386z" fill="#FFFFFF"/>
<path d="M62.172,13.814c0-3.978-2.143-8.878-3.796-10.164l0.673-0.672c1.104,1.101,2.449,3.305,3.062,5.51h0.123
  c0.856-6.061,8.388-8.144,14.143-8.144h0.551v1.101h-0.306c-3.735,0-5.266,2.696-5.266,7.043v25.653
  c0,2.204,0.245,3.979,2.205,3.979c0.855,0,2.142-0.733,3.122-1.226l0.307,0.798c-3.369,2.203-6.431,4.775-9.552,7.346
  c-2.204-2.817-4.96-5.144-8.081-6.796l0.306-0.797c0.367,0.122,0.857,0.369,1.347,0.369c0.551,0,1.163-0.369,1.163-1.041V13.814z" fill="#FFFFFF"/>
<path d="M80.292,18.346c0.918,0.307,2.143,0.613,3.245,0.613c2.143,0,4.837-0.185,4.837-2.512
  c-3.98-1.101-9.062-3.552-9.062-8.633c0-4.775,3.674-7.468,7.899-7.468c0.796,0,1.591,0.059,2.388,0.244v0.979
  c-0.245-0.059-0.92-0.122-1.654-0.122c-2.448,0-3.856,0.491-3.856,1.898c0,1.348,0.918,2.142,2.327,2.756l8.756,3.367
  c8.325,3.061,8.632,8.878,8.632,16.959c0,10.776-0.979,12.062-6.062,13.288c-3.366,0.795-5.631,2.021-7.346,5.326
  c-3.49-3.184-7.653-5.938-12.368-7.224V37.08c2.204-0.184,2.266-1.775,2.266-2.51V18.346z M89.476,34.386
  c1.959,0.982,3.674,2.448,5.144,3.796V22.508c0-2.815-0.857-4.774-5.144-5.694V34.386z" fill="#FFFFFF"/>
</svg>