<svg version="1.1" id="Ebene_1" xmlns="http://www.w3.org/2000/svg" xmlns:xlink="http://www.w3.org/1999/xlink" x="0px" y="0px"
	 width="84px" height="105px" viewBox="0 0 84 105" enable-background="new 0 0 84 105" xml:space="preserve">
<g id="vzxCu2_1_">
	<g>
		<g>
			<path fill="#FFFFFF" d="M14.175,42.32c0-7.466-0.184-14.095,0.039-20.711C14.668,8.142,18.813,2.807,32.05,1.019
				c7.646-1.033,15.665-0.757,23.339,0.264C63.777,2.399,68.555,7.83,69.18,16.284c0.617,8.379,0.135,16.839,0.135,26.332
				c3.246-1.28,5.221-2.504,7.311-2.752c1.943-0.23,4.818-0.115,5.848,1.082c1.898,2.21,1.489,5.22-1.101,7.154
				c-1.791,1.338-3.774,2.564-5.858,3.341c-22.212,8.286-44.486,8.191-66.721,0.11c-2.223-0.808-4.308-2.176-6.227-3.596
				c-2.677-1.98-2.72-5.058-0.907-7.191c0.981-1.155,3.898-1.102,5.855-0.868C9.513,40.136,11.405,41.264,14.175,42.32z"/>
			<path fill="#FFFFFF" d="M63.245,98.365c0-1.268,0-2.151,0-3.242c0.688,0.195,1.328,0.193,1.444,0.439
				c1.639,3.457,0.182,6.602-3.961,7.895c-7.48,2.335-13.91,0.839-18.521-5.951c-6.475,6.807-12.555,8.613-19.351,5.883
				c-4.023-1.617-5.13-4.822-2.396-8.9c0.18,1.554,0.289,2.504,0.445,3.854c7.336-1.047,12.035-12.148,21.228-5.921
				C51.258,86.109,55.727,97.285,63.245,98.365z"/>
			<path fill="#FFFFFF" d="M75.457,63.527c-0.646,2.177-1.143,3.893-1.665,5.602c-0.696,2.27-1.629,4.49-2.075,6.807
				c-0.845,4.39-2.845,7.729-7.529,8.437c-5.748,0.869-11.666,1.487-15.573-4.216c-1.595-2.326-2.423-5.163-3.835-7.633
				c-0.59-1.029-1.791-2.349-2.729-2.358c-0.925-0.011-2.057,1.332-2.751,2.323c-0.759,1.087-1.175,2.431-1.648,3.697
				c-3.428,9.178-11.594,10.252-19.854,7.379c-1.764-0.614-3.57-2.442-4.387-4.17c-1.823-3.856-3.187-7.955-4.435-12.047
				c-0.673-2.205-0.295-4.121,2.845-4.297c8.762-0.488,17.423-0.605,26.007,1.947c2.65,0.788,5.924,0.654,8.621-0.1
				C55.785,62.288,65.127,62.346,75.457,63.527z M60.312,64.529c-0.014-0.1-0.027-0.201-0.041-0.301
				c-3.271,0.416-6.703,0.369-9.748,1.436c-1.603,0.561-3.66,3.132-3.565,4.675c0.464,7.571,3.687,13.644,12.953,13.323
				c7.588-0.264,10.791-3.792,10.761-12.811c-0.018-5.269-1.686-6.332-9.908-6.322C60.613,64.531,60.462,64.529,60.312,64.529z
				 M24.003,64.29c-0.101-0.207-0.201-0.415-0.302-0.622c-3.152,1.012-7.073,1.193-9.28,3.229
				c-3.446,3.179,0.012,14.479,4.657,15.822c10.03,2.9,16.207-0.486,17.883-10.359c0.639-3.76-0.717-6.551-4.923-7.125
				C29.366,64.87,26.681,64.602,24.003,64.29z"/>
		</g>
	</g>
</g>
</svg>
